<?xml version="1.0" encoding="UTF-8"?>
<svg version="1.1" xmlns="http://www.w3.org/2000/svg" width="1024" height="1024">
<path d="M0 0 C337.92 0 675.84 0 1024 0 C1024 337.92 1024 675.84 1024 1024 C686.08 1024 348.16 1024 0 1024 C0 686.08 0 348.16 0 0 Z " fill="#010101" transform="translate(0,0)"/>
<path d="M0 0 C-1.26329896 7.38331894 -2.79686236 14.64909242 -4.6015625 21.91796875 C-4.9635524 23.39285515 -4.9635524 23.39285515 -5.33285522 24.89753723 C-6.09381636 27.9949608 -6.85932297 31.09123921 -7.625 34.1875 C-8.14613621 36.30526403 -8.66697224 38.42310196 -9.1875 40.54101562 C-10.45486917 45.69486856 -11.72595804 50.84779278 -13 56 C-14.42328819 55.53184294 -15.84603413 55.06203713 -17.26855469 54.59155273 C-18.06090515 54.33010971 -18.85325562 54.06866669 -19.6696167 53.79930115 C-22.91915771 52.68473692 -26.07782841 51.37958005 -29.25 50.0625 C-43.87075763 44.09715658 -60.23973451 38.33386506 -75.9375 43.625 C-87.22543484 48.4077398 -95.20095967 56.83270368 -99.9375 68.06640625 C-104.09164387 79.53611966 -105.12849397 90.84495434 -105.31640625 102.9375 C-105.33505737 103.93201172 -105.3537085 104.92652344 -105.3729248 105.95117188 C-105.44075662 109.63403205 -105.50120111 113.3170253 -105.5625 117 C-105.706875 125.25 -105.85125 133.5 -106 142 C-78.61 142 -51.22 142 -23 142 C-23 158.17 -23 174.34 -23 191 C-50.39 191 -77.78 191 -106 191 C-105.89436958 221.57406332 -105.78533881 252.14810609 -105.66888306 282.72212947 C-105.65511474 286.3379462 -105.64138746 289.95376309 -105.62768555 293.56958008 C-105.62495724 294.2893742 -105.62222894 295.00916831 -105.61941796 295.75077438 C-105.57543482 307.38037999 -105.53476972 319.00999493 -105.49534739 330.63961679 C-105.45477232 342.58732453 -105.41059314 354.53501509 -105.36312145 366.48269743 C-105.33658391 373.18733788 -105.31178692 379.89197501 -105.29092598 386.59663582 C-105.27121163 392.91585627 -105.24702568 399.23504431 -105.21950912 405.55423546 C-105.21021644 407.86517365 -105.20251396 410.17611892 -105.19658089 412.48706818 C-105.61420302 434.47672402 -105.61420302 434.47672402 -102.1875 456.0625 C-101.87167969 457.24972656 -101.55585938 458.43695312 -101.23046875 459.66015625 C-98.95563295 465.83471055 -95.92644701 470.03677649 -90 473 C-85.4079654 474.14248052 -81.57722056 474.70098692 -77.1875 472.75 C-70.65965991 464.54357246 -67.76726649 453.32320852 -64.1875 443.5625 C-63.61927577 442.02189278 -63.05082828 440.48136788 -62.48217773 438.94091797 C-60.6472046 433.96338134 -58.82252538 428.98210571 -57 424 C-56.70073608 423.18235168 -56.40147217 422.36470337 -56.09313965 421.52227783 C-45.90371729 393.67463475 -35.86037719 365.77392838 -25.80555725 337.87748718 C-25.33782016 336.57978286 -24.87008233 335.28207879 -24.40234375 333.984375 C-24.17163618 333.34429316 -23.94092861 332.70421131 -23.7032299 332.04473305 C-14.24567897 305.8062626 -4.76225282 279.57718077 4.77487183 253.36752319 C7.11510982 246.93565887 9.45377315 240.5032218 11.79248047 234.07080078 C13.34029719 229.81371504 14.88897321 225.55694281 16.43798828 221.30029297 C27.25724684 191.56227063 37.93917989 161.7815344 48.41014099 131.91906738 C48.9805587 130.29237122 48.9805587 130.29237122 49.5625 128.6328125 C49.93790421 127.56220581 50.31330841 126.49159912 50.7000885 125.3885498 C60.94557756 96.19236 71.47349631 67.0957293 82 38 C103.45 38 124.9 38 147 38 C151.49814636 49.2453659 151.49814636 49.2453659 153.17211914 54.16918945 C153.55167755 55.28072388 153.93123596 56.3922583 154.32229614 57.53747559 C154.72253998 58.71749146 155.12278381 59.89750732 155.53515625 61.11328125 C155.97020915 62.38857799 156.40559203 63.6637622 156.84127808 64.93884277 C157.76776533 67.65090471 158.69315071 70.36333847 159.61764526 73.07608032 C167.22252811 95.38301266 174.9404518 117.64259246 182.9375 139.8125 C183.32881104 140.8973468 183.72012207 141.9821936 184.12329102 143.09991455 C184.51250732 144.17892029 184.90172363 145.25792603 185.30273438 146.36962891 C190.13902925 159.78099107 194.89270082 173.21729901 199.5625 186.6875 C206.72041122 207.32006219 214.11034054 227.86643462 221.53439331 248.4045105 C224.23671882 255.88137076 226.9296343 263.361568 229.6171875 270.84375 C243.55213637 309.63302595 257.69915186 348.34179892 272.03196716 386.9858551 C273.88311794 391.9785052 275.72663051 396.97382701 277.56002808 401.97302246 C291.68754992 447.2841881 291.68754992 447.2841881 323.5625 479.4375 C328.8148146 481.78598717 333.14572786 482.69905063 339 484 C339 491.92 339 499.84 339 508 C282.57 508 226.14 508 168 508 C168 500.08 168 492.16 168 484 C170.8875 483.46375 173.775 482.9275 176.75 482.375 C187.59832359 480.1686555 197.6538041 477.16949661 204.6640625 468.0390625 C211.37923312 457.78959155 209.90311085 445.10834152 207.59983826 433.54165649 C205.32211108 423.20086344 201.47100269 413.27278292 197.9375 403.3125 C197.13055328 401.01436179 196.32466607 398.71585131 195.51977539 396.41699219 C193.84917211 391.64784982 192.17405112 386.88032906 190.49609375 382.11376953 C188.10881508 375.3223454 185.7516912 368.52081548 183.40625 361.71484375 C183.03583588 360.64014832 182.66542175 359.56545288 182.28378296 358.45819092 C181.53979815 356.29939035 180.79585065 354.14057693 180.05194092 351.98175049 C173.19721119 332.10382266 166.22542877 312.26911753 159.18774414 292.45532227 C152.97565838 274.9624036 146.85164798 257.43956712 140.75215149 239.90711975 C138.61470568 233.76353932 136.47279557 227.62153059 134.328125 221.48046875 C127.87008176 202.98730128 121.4247823 184.48971903 114.99871826 165.9854126 C114.26078507 163.86075341 113.52255398 161.73619766 112.78399658 159.61175537 C108.78196685 148.0984217 104.81149611 136.57801747 101 125 C99.20660336 128.33370931 98.00819188 131.73586783 96.8125 135.32421875 C96.36689952 136.64953619 95.92091476 137.97472446 95.47460938 139.29980469 C95.11725708 140.36442932 95.11725708 140.36442932 94.75268555 141.45056152 C89.5845939 156.80983486 84.11304764 172.04828733 78.5 187.25 C78.12345276 188.27003113 77.74690552 189.29006226 77.35894775 190.34100342 C75.79191086 194.58530657 74.22475786 198.82956672 72.65701294 203.0736084 C68.01973086 215.63748251 63.44651928 228.2245808 58.875 240.8125 C58.02336334 243.15682228 57.17171948 245.50114195 56.32006836 247.84545898 C55.06596427 251.29791615 53.8119777 254.75041585 52.55827332 258.20301819 C50.01417676 265.20923615 47.46749706 272.21450689 44.91796875 279.21875 C39.25651733 294.77395527 33.60076268 310.33112904 27.97265625 325.8984375 C19.38221179 349.65771008 10.77685754 373.4108384 2.0625 397.125 C1.69336487 398.12985443 1.32422974 399.13470886 0.94390869 400.17001343 C-5.28388016 417.11681536 -5.28388016 417.11681536 -7.79736328 423.76855469 C-8.07616837 424.50685516 -8.35497345 425.24515564 -8.64222717 426.00582886 C-9.15588627 427.36286962 -9.671539 428.71915835 -10.18968201 430.07449341 C-14.27099953 440.84437623 -15.15237119 455.06572151 -11.02734375 465.99609375 C-7.23651063 473.39038041 -1.73733804 477.21263599 6 480 C11.61615585 481.58906233 17.29027332 482.77648714 23 484 C23 491.92 23 499.84 23 508 C-60.49 508 -143.98 508 -230 508 C-230 500.41 -230 492.82 -230 485 C-225.60287126 483.53429042 -221.35591483 482.3053503 -216.875 481.1875 C-202.70952405 477.481609 -189.58354588 472.30456692 -181.3984375 459.52734375 C-173.34591841 444.9743274 -174.69543651 427.20026925 -174.68115234 411.12573242 C-174.67184221 408.7199012 -174.66167194 406.31407317 -174.65071106 403.9082489 C-174.62633426 398.0819966 -174.61084994 392.25577083 -174.59939598 386.42947992 C-174.58556661 379.64314799 -174.56060608 372.8568703 -174.53501268 366.0705742 C-174.48967199 353.97081426 -174.45300494 341.87104448 -174.421875 329.77124023 C-174.3916371 318.02545448 -174.35726298 306.27969269 -174.31738281 294.53393555 C-174.31492126 293.80852403 -174.31245972 293.08311252 -174.30992357 292.33571883 C-174.29754796 288.69612346 -174.28509162 285.05652837 -174.27259517 281.41693342 C-174.1692181 251.2779844 -174.08156524 221.1390182 -174 191 C-192.81 191 -211.62 191 -231 191 C-231 174.83 -231 158.66 -231 142 C-212.19 142 -193.38 142 -174 142 C-174.07866894 124.99419616 -174.07866894 124.99419616 -174.18017578 107.98852539 C-174.32528765 71.87523968 -167.53867301 41.31948658 -141.8125 14.4375 C-103.22105488 -23.14813243 -46.8541627 -16.80770353 0 0 Z " fill="#FEFEFE" transform="translate(464,243)"/>
</svg>
