<?xml version="1.0" standalone="no"?>
<!DOCTYPE svg PUBLIC "-//W3C//DTD SVG 20010904//EN"
 "http://www.w3.org/TR/2001/REC-SVG-20010904/DTD/svg10.dtd">
<svg version="1.0" xmlns="http://www.w3.org/2000/svg"
 width="1024.000000pt" height="1024.000000pt" viewBox="0 0 1024.000000 1024.000000"
 preserveAspectRatio="xMidYMid meet">

<g transform="translate(0.000000,1024.000000) scale(0.100000,-0.100000)"
fill="#000000" stroke="none">
<path d="M0 5120 l0 -5120 5120 0 5120 0 0 5120 0 5120 -5120 0 -5120 0 0
-5120z m4130 2810 c127 -16 261 -46 390 -87 63 -20 116 -37 118 -38 2 -2 -128
-547 -133 -552 -1 -2 -42 14 -91 36 -49 21 -134 54 -189 72 -87 28 -114 33
-205 33 -99 1 -109 -1 -171 -31 -82 -41 -160 -121 -200 -206 -52 -112 -61
-175 -66 -484 l-5 -283 416 0 416 0 0 -245 0 -245 -415 0 -415 0 0 -1192 c0
-700 4 -1239 10 -1304 18 -204 69 -306 165 -333 57 -16 79 -14 109 10 50 39
54 49 493 1264 107 297 288 799 403 1115 168 462 415 1155 677 1898 l26 72
325 -2 325 -3 38 -112 c122 -353 226 -653 294 -843 42 -118 110 -309 150 -425
83 -236 486 -1359 593 -1650 39 -104 120 -327 182 -495 197 -535 286 -721 387
-810 59 -52 146 -96 221 -114 l57 -13 -1 -49 c-1 -27 -2 -79 -3 -116 l-1 -68
-855 0 -855 0 0 118 0 117 90 17 c160 29 258 91 306 193 19 40 24 66 24 130 0
111 -19 189 -99 420 -39 110 -122 349 -185 530 -63 182 -187 537 -276 790
-233 664 -489 1400 -512 1473 -11 35 -21 62 -23 60 -2 -2 -18 -48 -35 -103
-29 -89 -119 -339 -478 -1325 -55 -151 -190 -522 -300 -825 -110 -302 -228
-624 -263 -715 -58 -154 -63 -171 -67 -266 -9 -221 67 -317 286 -360 l82 -17
0 -118 0 -119 -1265 0 -1266 0 3 117 3 117 65 13 c221 45 371 137 435 267 54
110 55 144 55 1454 l0 1202 -285 0 -285 0 0 245 0 245 284 0 284 0 5 318 c5
331 11 389 58 532 65 198 200 385 369 510 115 85 305 163 445 183 63 9 274 7
355 -3z"/>
</g>
</svg>
